<mxfile host="app.diagrams.net" modified="2024-03-31T23:46:54.265Z" agent="Mozilla/5.0 (Windows NT 10.0; Win64; x64) AppleWebKit/537.36 (KHTML, like Gecko) Chrome/122.0.0.0 Safari/537.36 Edg/122.0.0.0" etag="tSvYhahNxor14uEVoMPc" version="24.2.1" type="device">
  <diagram name="Page-1" id="uIo5roDCjX_VKF2g1XFK">
    <mxGraphModel dx="830" dy="1550" grid="1" gridSize="10" guides="1" tooltips="1" connect="1" arrows="1" fold="1" page="1" pageScale="1" pageWidth="850" pageHeight="1100" math="0" shadow="0">
      <root>
        <mxCell id="0" />
        <mxCell id="1" parent="0" />
        <mxCell id="_gr7ssFAGt_kjZDbc0Gs-3" value="" style="rounded=1;whiteSpace=wrap;html=1;" vertex="1" parent="1">
          <mxGeometry x="90" y="-770" width="610" height="120" as="geometry" />
        </mxCell>
        <mxCell id="_gr7ssFAGt_kjZDbc0Gs-5" value="" style="shape=cylinder3;whiteSpace=wrap;html=1;boundedLbl=1;backgroundOutline=1;size=15;" vertex="1" parent="1">
          <mxGeometry x="365" y="-380" width="95" height="150" as="geometry" />
        </mxCell>
        <mxCell id="_gr7ssFAGt_kjZDbc0Gs-10" value="" style="rounded=0;whiteSpace=wrap;html=1;" vertex="1" parent="1">
          <mxGeometry x="40" y="-1040" width="210" height="50" as="geometry" />
        </mxCell>
        <mxCell id="_gr7ssFAGt_kjZDbc0Gs-11" value="/video&lt;div&gt;POST&lt;/div&gt;" style="text;html=1;align=center;verticalAlign=middle;whiteSpace=wrap;rounded=0;" vertex="1" parent="1">
          <mxGeometry x="115" y="-1035" width="60" height="30" as="geometry" />
        </mxCell>
        <mxCell id="_gr7ssFAGt_kjZDbc0Gs-12" value="" style="rounded=0;whiteSpace=wrap;html=1;" vertex="1" parent="1">
          <mxGeometry x="40" y="-990" width="100" height="90" as="geometry" />
        </mxCell>
        <mxCell id="_gr7ssFAGt_kjZDbc0Gs-13" value="" style="rounded=0;whiteSpace=wrap;html=1;" vertex="1" parent="1">
          <mxGeometry x="150" y="-990" width="100" height="90" as="geometry" />
        </mxCell>
        <mxCell id="_gr7ssFAGt_kjZDbc0Gs-14" value="- vid file&lt;div&gt;- batch name&lt;/div&gt;" style="text;html=1;align=center;verticalAlign=middle;whiteSpace=wrap;rounded=0;" vertex="1" parent="1">
          <mxGeometry x="50" y="-980" width="80" height="50" as="geometry" />
        </mxCell>
        <mxCell id="_gr7ssFAGt_kjZDbc0Gs-15" value="- id&lt;div&gt;- success&lt;/div&gt;" style="text;html=1;align=center;verticalAlign=middle;whiteSpace=wrap;rounded=0;" vertex="1" parent="1">
          <mxGeometry x="170" y="-970" width="60" height="30" as="geometry" />
        </mxCell>
        <mxCell id="_gr7ssFAGt_kjZDbc0Gs-17" value="1. video&lt;div&gt;- batch name&lt;/div&gt;&lt;div&gt;- file name&lt;/div&gt;&lt;div&gt;- file path&lt;/div&gt;&lt;div&gt;- date&lt;/div&gt;" style="text;html=1;align=left;verticalAlign=middle;whiteSpace=wrap;rounded=0;" vertex="1" parent="1">
          <mxGeometry x="120" y="-580" width="90" height="100" as="geometry" />
        </mxCell>
        <mxCell id="_gr7ssFAGt_kjZDbc0Gs-20" value="" style="endArrow=classic;html=1;rounded=0;" edge="1" parent="1">
          <mxGeometry width="50" height="50" relative="1" as="geometry">
            <mxPoint x="140" y="-640" as="sourcePoint" />
            <mxPoint x="360" y="-350" as="targetPoint" />
          </mxGeometry>
        </mxCell>
        <mxCell id="_gr7ssFAGt_kjZDbc0Gs-21" value="" style="endArrow=classic;html=1;rounded=0;" edge="1" parent="1">
          <mxGeometry width="50" height="50" relative="1" as="geometry">
            <mxPoint x="360" y="-370" as="sourcePoint" />
            <mxPoint x="160" y="-640" as="targetPoint" />
          </mxGeometry>
        </mxCell>
        <mxCell id="_gr7ssFAGt_kjZDbc0Gs-23" value="&lt;div style=&quot;&quot;&gt;&lt;span style=&quot;background-color: initial;&quot;&gt;2. video&lt;/span&gt;&lt;/div&gt;&lt;div&gt;- id&lt;/div&gt;" style="text;html=1;align=left;verticalAlign=middle;whiteSpace=wrap;rounded=0;" vertex="1" parent="1">
          <mxGeometry x="190" y="-470" width="60" height="30" as="geometry" />
        </mxCell>
        <mxCell id="_gr7ssFAGt_kjZDbc0Gs-25" value="" style="rounded=0;whiteSpace=wrap;html=1;" vertex="1" parent="1">
          <mxGeometry x="310" y="-1040" width="230" height="140" as="geometry" />
        </mxCell>
        <mxCell id="_gr7ssFAGt_kjZDbc0Gs-26" value="" style="endArrow=none;html=1;rounded=0;exitX=0.013;exitY=0.379;exitDx=0;exitDy=0;exitPerimeter=0;entryX=1.013;entryY=0.379;entryDx=0;entryDy=0;entryPerimeter=0;" edge="1" parent="1" source="_gr7ssFAGt_kjZDbc0Gs-25" target="_gr7ssFAGt_kjZDbc0Gs-25">
          <mxGeometry width="50" height="50" relative="1" as="geometry">
            <mxPoint x="340" y="-980" as="sourcePoint" />
            <mxPoint x="390" y="-1030" as="targetPoint" />
          </mxGeometry>
        </mxCell>
        <mxCell id="_gr7ssFAGt_kjZDbc0Gs-28" value="" style="endArrow=none;html=1;rounded=0;" edge="1" parent="1">
          <mxGeometry width="50" height="50" relative="1" as="geometry">
            <mxPoint x="424.5" y="-900" as="sourcePoint" />
            <mxPoint x="424.5" y="-980" as="targetPoint" />
          </mxGeometry>
        </mxCell>
        <mxCell id="_gr7ssFAGt_kjZDbc0Gs-29" value="/video/{id}&lt;div&gt;GET&lt;/div&gt;" style="text;html=1;align=center;verticalAlign=middle;whiteSpace=wrap;rounded=0;" vertex="1" parent="1">
          <mxGeometry x="395" y="-1030" width="60" height="30" as="geometry" />
        </mxCell>
        <mxCell id="_gr7ssFAGt_kjZDbc0Gs-30" value="- id" style="text;html=1;align=center;verticalAlign=middle;whiteSpace=wrap;rounded=0;" vertex="1" parent="1">
          <mxGeometry x="325" y="-960" width="60" height="30" as="geometry" />
        </mxCell>
        <mxCell id="_gr7ssFAGt_kjZDbc0Gs-31" value="- id&lt;div&gt;- status&lt;/div&gt;&lt;div&gt;- src path&lt;/div&gt;&lt;div&gt;- prod path&lt;/div&gt;&lt;div&gt;- animals found&lt;/div&gt;" style="text;html=1;align=center;verticalAlign=middle;whiteSpace=wrap;rounded=0;" vertex="1" parent="1">
          <mxGeometry x="430" y="-960" width="100" height="30" as="geometry" />
        </mxCell>
        <mxCell id="_gr7ssFAGt_kjZDbc0Gs-34" value="" style="endArrow=classic;html=1;rounded=0;exitX=0.128;exitY=-0.008;exitDx=0;exitDy=0;exitPerimeter=0;entryX=0.4;entryY=0.989;entryDx=0;entryDy=0;entryPerimeter=0;" edge="1" parent="1" source="_gr7ssFAGt_kjZDbc0Gs-3" target="_gr7ssFAGt_kjZDbc0Gs-13">
          <mxGeometry width="50" height="50" relative="1" as="geometry">
            <mxPoint x="630" y="-910" as="sourcePoint" />
            <mxPoint x="680" y="-960" as="targetPoint" />
          </mxGeometry>
        </mxCell>
        <mxCell id="_gr7ssFAGt_kjZDbc0Gs-35" value="" style="endArrow=classic;html=1;rounded=0;entryX=0.085;entryY=-0.033;entryDx=0;entryDy=0;entryPerimeter=0;exitX=0.5;exitY=1;exitDx=0;exitDy=0;" edge="1" parent="1" source="_gr7ssFAGt_kjZDbc0Gs-12" target="_gr7ssFAGt_kjZDbc0Gs-3">
          <mxGeometry width="50" height="50" relative="1" as="geometry">
            <mxPoint x="90" y="-830" as="sourcePoint" />
            <mxPoint x="140" y="-880" as="targetPoint" />
          </mxGeometry>
        </mxCell>
        <mxCell id="_gr7ssFAGt_kjZDbc0Gs-36" value="" style="endArrow=classic;html=1;rounded=0;exitX=0.2;exitY=1.014;exitDx=0;exitDy=0;exitPerimeter=0;entryX=0.267;entryY=0.008;entryDx=0;entryDy=0;entryPerimeter=0;" edge="1" parent="1" source="_gr7ssFAGt_kjZDbc0Gs-25" target="_gr7ssFAGt_kjZDbc0Gs-3">
          <mxGeometry width="50" height="50" relative="1" as="geometry">
            <mxPoint x="630" y="-910" as="sourcePoint" />
            <mxPoint x="680" y="-960" as="targetPoint" />
          </mxGeometry>
        </mxCell>
        <mxCell id="_gr7ssFAGt_kjZDbc0Gs-37" value="" style="endArrow=classic;html=1;rounded=0;exitX=0.315;exitY=-0.017;exitDx=0;exitDy=0;exitPerimeter=0;entryX=0.691;entryY=1.021;entryDx=0;entryDy=0;entryPerimeter=0;" edge="1" parent="1" source="_gr7ssFAGt_kjZDbc0Gs-3" target="_gr7ssFAGt_kjZDbc0Gs-25">
          <mxGeometry width="50" height="50" relative="1" as="geometry">
            <mxPoint x="630" y="-910" as="sourcePoint" />
            <mxPoint x="490" y="-890" as="targetPoint" />
          </mxGeometry>
        </mxCell>
        <mxCell id="_gr7ssFAGt_kjZDbc0Gs-39" value="" style="endArrow=none;html=1;rounded=0;entryX=0.375;entryY=0;entryDx=0;entryDy=0;entryPerimeter=0;exitX=0.375;exitY=1.017;exitDx=0;exitDy=0;exitPerimeter=0;" edge="1" parent="1" source="_gr7ssFAGt_kjZDbc0Gs-3" target="_gr7ssFAGt_kjZDbc0Gs-3">
          <mxGeometry width="50" height="50" relative="1" as="geometry">
            <mxPoint x="630" y="-670" as="sourcePoint" />
            <mxPoint x="680" y="-720" as="targetPoint" />
          </mxGeometry>
        </mxCell>
        <mxCell id="_gr7ssFAGt_kjZDbc0Gs-40" value="" style="endArrow=none;html=1;rounded=0;exitX=0.25;exitY=0;exitDx=0;exitDy=0;" edge="1" parent="1" source="_gr7ssFAGt_kjZDbc0Gs-23">
          <mxGeometry width="50" height="50" relative="1" as="geometry">
            <mxPoint x="220" y="-480" as="sourcePoint" />
            <mxPoint x="260" y="-500" as="targetPoint" />
          </mxGeometry>
        </mxCell>
        <mxCell id="_gr7ssFAGt_kjZDbc0Gs-41" value="" style="endArrow=none;html=1;rounded=0;exitX=0.25;exitY=0;exitDx=0;exitDy=0;" edge="1" parent="1" source="_gr7ssFAGt_kjZDbc0Gs-17">
          <mxGeometry width="50" height="50" relative="1" as="geometry">
            <mxPoint x="100" y="-570" as="sourcePoint" />
            <mxPoint x="150" y="-620" as="targetPoint" />
          </mxGeometry>
        </mxCell>
        <mxCell id="_gr7ssFAGt_kjZDbc0Gs-43" value="" style="endArrow=classic;html=1;rounded=0;exitX=0.242;exitY=-0.007;exitDx=0;exitDy=0;exitPerimeter=0;entryX=0.289;entryY=1.025;entryDx=0;entryDy=0;entryPerimeter=0;" edge="1" parent="1" source="_gr7ssFAGt_kjZDbc0Gs-5" target="_gr7ssFAGt_kjZDbc0Gs-3">
          <mxGeometry width="50" height="50" relative="1" as="geometry">
            <mxPoint x="630" y="-670" as="sourcePoint" />
            <mxPoint x="680" y="-720" as="targetPoint" />
          </mxGeometry>
        </mxCell>
        <mxCell id="_gr7ssFAGt_kjZDbc0Gs-44" value="1. video&lt;div&gt;- id&lt;/div&gt;&lt;div&gt;- status&lt;/div&gt;&lt;div&gt;- src path&lt;/div&gt;&lt;div&gt;- prod path&lt;/div&gt;&lt;div&gt;- animals found&lt;/div&gt;" style="text;html=1;align=center;verticalAlign=middle;whiteSpace=wrap;rounded=0;" vertex="1" parent="1">
          <mxGeometry x="320" y="-580" width="100" height="35" as="geometry" />
        </mxCell>
        <mxCell id="_gr7ssFAGt_kjZDbc0Gs-45" value="" style="endArrow=none;html=1;rounded=0;exitX=0.75;exitY=1;exitDx=0;exitDy=0;entryX=0.75;entryY=0;entryDx=0;entryDy=0;" edge="1" parent="1" source="_gr7ssFAGt_kjZDbc0Gs-3" target="_gr7ssFAGt_kjZDbc0Gs-3">
          <mxGeometry width="50" height="50" relative="1" as="geometry">
            <mxPoint x="630" y="-670" as="sourcePoint" />
            <mxPoint x="680" y="-720" as="targetPoint" />
          </mxGeometry>
        </mxCell>
        <mxCell id="_gr7ssFAGt_kjZDbc0Gs-46" value="bkrnd proc" style="text;html=1;align=center;verticalAlign=middle;whiteSpace=wrap;rounded=0;" vertex="1" parent="1">
          <mxGeometry x="590" y="-725" width="60" height="30" as="geometry" />
        </mxCell>
        <mxCell id="_gr7ssFAGt_kjZDbc0Gs-47" value="" style="endArrow=classic;html=1;rounded=0;exitX=0.859;exitY=1.025;exitDx=0;exitDy=0;exitPerimeter=0;entryX=1;entryY=0;entryDx=0;entryDy=45;entryPerimeter=0;" edge="1" parent="1" source="_gr7ssFAGt_kjZDbc0Gs-3" target="_gr7ssFAGt_kjZDbc0Gs-5">
          <mxGeometry width="50" height="50" relative="1" as="geometry">
            <mxPoint x="630" y="-670" as="sourcePoint" />
            <mxPoint x="680" y="-720" as="targetPoint" />
          </mxGeometry>
        </mxCell>
        <mxCell id="_gr7ssFAGt_kjZDbc0Gs-48" value="" style="endArrow=classic;html=1;rounded=0;exitX=1;exitY=0.047;exitDx=0;exitDy=0;exitPerimeter=0;entryX=0.82;entryY=1;entryDx=0;entryDy=0;entryPerimeter=0;" edge="1" parent="1" source="_gr7ssFAGt_kjZDbc0Gs-5" target="_gr7ssFAGt_kjZDbc0Gs-3">
          <mxGeometry width="50" height="50" relative="1" as="geometry">
            <mxPoint x="630" y="-670" as="sourcePoint" />
            <mxPoint x="680" y="-720" as="targetPoint" />
          </mxGeometry>
        </mxCell>
        <mxCell id="_gr7ssFAGt_kjZDbc0Gs-49" value="1. trans table&lt;div&gt;-&amp;nbsp; model id name&lt;/div&gt;&lt;div&gt;- common name&lt;/div&gt;" style="text;html=1;align=center;verticalAlign=middle;whiteSpace=wrap;rounded=0;" vertex="1" parent="1">
          <mxGeometry x="640" y="-610" width="130" height="40" as="geometry" />
        </mxCell>
        <mxCell id="_gr7ssFAGt_kjZDbc0Gs-50" value="" style="endArrow=none;html=1;rounded=0;entryX=0.323;entryY=-0.075;entryDx=0;entryDy=0;entryPerimeter=0;" edge="1" parent="1" target="_gr7ssFAGt_kjZDbc0Gs-49">
          <mxGeometry width="50" height="50" relative="1" as="geometry">
            <mxPoint x="580" y="-620" as="sourcePoint" />
            <mxPoint x="680" y="-720" as="targetPoint" />
          </mxGeometry>
        </mxCell>
        <mxCell id="_gr7ssFAGt_kjZDbc0Gs-51" value="3. video&lt;div&gt;- id&lt;/div&gt;&lt;div&gt;- status&lt;/div&gt;&lt;div&gt;- prod path&amp;nbsp;&lt;/div&gt;" style="text;html=1;align=center;verticalAlign=middle;whiteSpace=wrap;rounded=0;" vertex="1" parent="1">
          <mxGeometry x="630" y="-410" width="150" height="40" as="geometry" />
        </mxCell>
        <mxCell id="_gr7ssFAGt_kjZDbc0Gs-52" value="2. vid_animals found&lt;div&gt;- id&lt;/div&gt;&lt;div&gt;- model id name&lt;/div&gt;&lt;div&gt;- convifence&lt;/div&gt;&lt;div&gt;- common names&lt;/div&gt;" style="text;html=1;align=center;verticalAlign=middle;whiteSpace=wrap;rounded=0;" vertex="1" parent="1">
          <mxGeometry x="630" y="-520" width="150" height="50" as="geometry" />
        </mxCell>
        <mxCell id="_gr7ssFAGt_kjZDbc0Gs-53" value="" style="endArrow=none;html=1;rounded=0;entryX=0;entryY=0;entryDx=0;entryDy=0;" edge="1" parent="1" target="_gr7ssFAGt_kjZDbc0Gs-52">
          <mxGeometry width="50" height="50" relative="1" as="geometry">
            <mxPoint x="560" y="-540" as="sourcePoint" />
            <mxPoint x="680" y="-720" as="targetPoint" />
          </mxGeometry>
        </mxCell>
        <mxCell id="_gr7ssFAGt_kjZDbc0Gs-54" value="" style="endArrow=none;html=1;rounded=0;entryX=0;entryY=0;entryDx=0;entryDy=0;" edge="1" parent="1" target="_gr7ssFAGt_kjZDbc0Gs-51">
          <mxGeometry width="50" height="50" relative="1" as="geometry">
            <mxPoint x="520" y="-460" as="sourcePoint" />
            <mxPoint x="680" y="-720" as="targetPoint" />
          </mxGeometry>
        </mxCell>
        <mxCell id="_gr7ssFAGt_kjZDbc0Gs-55" value="/video" style="text;html=1;align=center;verticalAlign=middle;whiteSpace=wrap;rounded=0;" vertex="1" parent="1">
          <mxGeometry x="170" y="-725" width="60" height="30" as="geometry" />
        </mxCell>
        <mxCell id="_gr7ssFAGt_kjZDbc0Gs-69" value="classified_animal" style="shape=table;startSize=30;container=1;collapsible=1;childLayout=tableLayout;fixedRows=1;rowLines=0;fontStyle=1;align=center;resizeLast=1;html=1;" vertex="1" parent="1">
          <mxGeometry x="550" y="-240" width="180" height="210" as="geometry" />
        </mxCell>
        <mxCell id="_gr7ssFAGt_kjZDbc0Gs-70" value="" style="shape=tableRow;horizontal=0;startSize=0;swimlaneHead=0;swimlaneBody=0;fillColor=none;collapsible=0;dropTarget=0;points=[[0,0.5],[1,0.5]];portConstraint=eastwest;top=0;left=0;right=0;bottom=1;" vertex="1" parent="_gr7ssFAGt_kjZDbc0Gs-69">
          <mxGeometry y="30" width="180" height="30" as="geometry" />
        </mxCell>
        <mxCell id="_gr7ssFAGt_kjZDbc0Gs-71" value="PK" style="shape=partialRectangle;connectable=0;fillColor=none;top=0;left=0;bottom=0;right=0;fontStyle=1;overflow=hidden;whiteSpace=wrap;html=1;" vertex="1" parent="_gr7ssFAGt_kjZDbc0Gs-70">
          <mxGeometry width="30" height="30" as="geometry">
            <mxRectangle width="30" height="30" as="alternateBounds" />
          </mxGeometry>
        </mxCell>
        <mxCell id="_gr7ssFAGt_kjZDbc0Gs-72" value="id" style="shape=partialRectangle;connectable=0;fillColor=none;top=0;left=0;bottom=0;right=0;align=left;spacingLeft=6;fontStyle=5;overflow=hidden;whiteSpace=wrap;html=1;" vertex="1" parent="_gr7ssFAGt_kjZDbc0Gs-70">
          <mxGeometry x="30" width="150" height="30" as="geometry">
            <mxRectangle width="150" height="30" as="alternateBounds" />
          </mxGeometry>
        </mxCell>
        <mxCell id="_gr7ssFAGt_kjZDbc0Gs-73" value="" style="shape=tableRow;horizontal=0;startSize=0;swimlaneHead=0;swimlaneBody=0;fillColor=none;collapsible=0;dropTarget=0;points=[[0,0.5],[1,0.5]];portConstraint=eastwest;top=0;left=0;right=0;bottom=0;" vertex="1" parent="_gr7ssFAGt_kjZDbc0Gs-69">
          <mxGeometry y="60" width="180" height="30" as="geometry" />
        </mxCell>
        <mxCell id="_gr7ssFAGt_kjZDbc0Gs-74" value="" style="shape=partialRectangle;connectable=0;fillColor=none;top=0;left=0;bottom=0;right=0;editable=1;overflow=hidden;whiteSpace=wrap;html=1;" vertex="1" parent="_gr7ssFAGt_kjZDbc0Gs-73">
          <mxGeometry width="30" height="30" as="geometry">
            <mxRectangle width="30" height="30" as="alternateBounds" />
          </mxGeometry>
        </mxCell>
        <mxCell id="_gr7ssFAGt_kjZDbc0Gs-75" value="vid_process_id" style="shape=partialRectangle;connectable=0;fillColor=none;top=0;left=0;bottom=0;right=0;align=left;spacingLeft=6;overflow=hidden;whiteSpace=wrap;html=1;" vertex="1" parent="_gr7ssFAGt_kjZDbc0Gs-73">
          <mxGeometry x="30" width="150" height="30" as="geometry">
            <mxRectangle width="150" height="30" as="alternateBounds" />
          </mxGeometry>
        </mxCell>
        <mxCell id="_gr7ssFAGt_kjZDbc0Gs-76" value="" style="shape=tableRow;horizontal=0;startSize=0;swimlaneHead=0;swimlaneBody=0;fillColor=none;collapsible=0;dropTarget=0;points=[[0,0.5],[1,0.5]];portConstraint=eastwest;top=0;left=0;right=0;bottom=0;" vertex="1" parent="_gr7ssFAGt_kjZDbc0Gs-69">
          <mxGeometry y="90" width="180" height="30" as="geometry" />
        </mxCell>
        <mxCell id="_gr7ssFAGt_kjZDbc0Gs-77" value="" style="shape=partialRectangle;connectable=0;fillColor=none;top=0;left=0;bottom=0;right=0;editable=1;overflow=hidden;whiteSpace=wrap;html=1;" vertex="1" parent="_gr7ssFAGt_kjZDbc0Gs-76">
          <mxGeometry width="30" height="30" as="geometry">
            <mxRectangle width="30" height="30" as="alternateBounds" />
          </mxGeometry>
        </mxCell>
        <mxCell id="_gr7ssFAGt_kjZDbc0Gs-78" value="name" style="shape=partialRectangle;connectable=0;fillColor=none;top=0;left=0;bottom=0;right=0;align=left;spacingLeft=6;overflow=hidden;whiteSpace=wrap;html=1;" vertex="1" parent="_gr7ssFAGt_kjZDbc0Gs-76">
          <mxGeometry x="30" width="150" height="30" as="geometry">
            <mxRectangle width="150" height="30" as="alternateBounds" />
          </mxGeometry>
        </mxCell>
        <mxCell id="_gr7ssFAGt_kjZDbc0Gs-79" value="" style="shape=tableRow;horizontal=0;startSize=0;swimlaneHead=0;swimlaneBody=0;fillColor=none;collapsible=0;dropTarget=0;points=[[0,0.5],[1,0.5]];portConstraint=eastwest;top=0;left=0;right=0;bottom=0;" vertex="1" parent="_gr7ssFAGt_kjZDbc0Gs-69">
          <mxGeometry y="120" width="180" height="30" as="geometry" />
        </mxCell>
        <mxCell id="_gr7ssFAGt_kjZDbc0Gs-80" value="" style="shape=partialRectangle;connectable=0;fillColor=none;top=0;left=0;bottom=0;right=0;editable=1;overflow=hidden;whiteSpace=wrap;html=1;" vertex="1" parent="_gr7ssFAGt_kjZDbc0Gs-79">
          <mxGeometry width="30" height="30" as="geometry">
            <mxRectangle width="30" height="30" as="alternateBounds" />
          </mxGeometry>
        </mxCell>
        <mxCell id="_gr7ssFAGt_kjZDbc0Gs-81" value="description" style="shape=partialRectangle;connectable=0;fillColor=none;top=0;left=0;bottom=0;right=0;align=left;spacingLeft=6;overflow=hidden;whiteSpace=wrap;html=1;" vertex="1" parent="_gr7ssFAGt_kjZDbc0Gs-79">
          <mxGeometry x="30" width="150" height="30" as="geometry">
            <mxRectangle width="150" height="30" as="alternateBounds" />
          </mxGeometry>
        </mxCell>
        <mxCell id="_gr7ssFAGt_kjZDbc0Gs-154" value="" style="shape=tableRow;horizontal=0;startSize=0;swimlaneHead=0;swimlaneBody=0;fillColor=none;collapsible=0;dropTarget=0;points=[[0,0.5],[1,0.5]];portConstraint=eastwest;top=0;left=0;right=0;bottom=0;" vertex="1" parent="_gr7ssFAGt_kjZDbc0Gs-69">
          <mxGeometry y="150" width="180" height="30" as="geometry" />
        </mxCell>
        <mxCell id="_gr7ssFAGt_kjZDbc0Gs-155" value="" style="shape=partialRectangle;connectable=0;fillColor=none;top=0;left=0;bottom=0;right=0;editable=1;overflow=hidden;whiteSpace=wrap;html=1;" vertex="1" parent="_gr7ssFAGt_kjZDbc0Gs-154">
          <mxGeometry width="30" height="30" as="geometry">
            <mxRectangle width="30" height="30" as="alternateBounds" />
          </mxGeometry>
        </mxCell>
        <mxCell id="_gr7ssFAGt_kjZDbc0Gs-156" value="confidence" style="shape=partialRectangle;connectable=0;fillColor=none;top=0;left=0;bottom=0;right=0;align=left;spacingLeft=6;overflow=hidden;whiteSpace=wrap;html=1;" vertex="1" parent="_gr7ssFAGt_kjZDbc0Gs-154">
          <mxGeometry x="30" width="150" height="30" as="geometry">
            <mxRectangle width="150" height="30" as="alternateBounds" />
          </mxGeometry>
        </mxCell>
        <mxCell id="_gr7ssFAGt_kjZDbc0Gs-157" value="" style="shape=tableRow;horizontal=0;startSize=0;swimlaneHead=0;swimlaneBody=0;fillColor=none;collapsible=0;dropTarget=0;points=[[0,0.5],[1,0.5]];portConstraint=eastwest;top=0;left=0;right=0;bottom=0;" vertex="1" parent="_gr7ssFAGt_kjZDbc0Gs-69">
          <mxGeometry y="180" width="180" height="30" as="geometry" />
        </mxCell>
        <mxCell id="_gr7ssFAGt_kjZDbc0Gs-158" value="" style="shape=partialRectangle;connectable=0;fillColor=none;top=0;left=0;bottom=0;right=0;editable=1;overflow=hidden;whiteSpace=wrap;html=1;" vertex="1" parent="_gr7ssFAGt_kjZDbc0Gs-157">
          <mxGeometry width="30" height="30" as="geometry">
            <mxRectangle width="30" height="30" as="alternateBounds" />
          </mxGeometry>
        </mxCell>
        <mxCell id="_gr7ssFAGt_kjZDbc0Gs-159" value="frame_idx" style="shape=partialRectangle;connectable=0;fillColor=none;top=0;left=0;bottom=0;right=0;align=left;spacingLeft=6;overflow=hidden;whiteSpace=wrap;html=1;" vertex="1" parent="_gr7ssFAGt_kjZDbc0Gs-157">
          <mxGeometry x="30" width="150" height="30" as="geometry">
            <mxRectangle width="150" height="30" as="alternateBounds" />
          </mxGeometry>
        </mxCell>
        <mxCell id="_gr7ssFAGt_kjZDbc0Gs-95" value="vid_process" style="shape=table;startSize=30;container=1;collapsible=1;childLayout=tableLayout;fixedRows=1;rowLines=0;fontStyle=1;align=center;resizeLast=1;html=1;" vertex="1" parent="1">
          <mxGeometry x="115" y="-240" width="180" height="270" as="geometry" />
        </mxCell>
        <mxCell id="_gr7ssFAGt_kjZDbc0Gs-96" value="" style="shape=tableRow;horizontal=0;startSize=0;swimlaneHead=0;swimlaneBody=0;fillColor=none;collapsible=0;dropTarget=0;points=[[0,0.5],[1,0.5]];portConstraint=eastwest;top=0;left=0;right=0;bottom=1;" vertex="1" parent="_gr7ssFAGt_kjZDbc0Gs-95">
          <mxGeometry y="30" width="180" height="30" as="geometry" />
        </mxCell>
        <mxCell id="_gr7ssFAGt_kjZDbc0Gs-97" value="PK" style="shape=partialRectangle;connectable=0;fillColor=none;top=0;left=0;bottom=0;right=0;fontStyle=1;overflow=hidden;whiteSpace=wrap;html=1;" vertex="1" parent="_gr7ssFAGt_kjZDbc0Gs-96">
          <mxGeometry width="30" height="30" as="geometry">
            <mxRectangle width="30" height="30" as="alternateBounds" />
          </mxGeometry>
        </mxCell>
        <mxCell id="_gr7ssFAGt_kjZDbc0Gs-98" value="&lt;span style=&quot;text-align: center; text-wrap: nowrap;&quot;&gt;id&lt;/span&gt;" style="shape=partialRectangle;connectable=0;fillColor=none;top=0;left=0;bottom=0;right=0;align=left;spacingLeft=6;fontStyle=5;overflow=hidden;whiteSpace=wrap;html=1;" vertex="1" parent="_gr7ssFAGt_kjZDbc0Gs-96">
          <mxGeometry x="30" width="150" height="30" as="geometry">
            <mxRectangle width="150" height="30" as="alternateBounds" />
          </mxGeometry>
        </mxCell>
        <mxCell id="_gr7ssFAGt_kjZDbc0Gs-99" value="" style="shape=tableRow;horizontal=0;startSize=0;swimlaneHead=0;swimlaneBody=0;fillColor=none;collapsible=0;dropTarget=0;points=[[0,0.5],[1,0.5]];portConstraint=eastwest;top=0;left=0;right=0;bottom=0;" vertex="1" parent="_gr7ssFAGt_kjZDbc0Gs-95">
          <mxGeometry y="60" width="180" height="30" as="geometry" />
        </mxCell>
        <mxCell id="_gr7ssFAGt_kjZDbc0Gs-100" value="" style="shape=partialRectangle;connectable=0;fillColor=none;top=0;left=0;bottom=0;right=0;editable=1;overflow=hidden;whiteSpace=wrap;html=1;" vertex="1" parent="_gr7ssFAGt_kjZDbc0Gs-99">
          <mxGeometry width="30" height="30" as="geometry">
            <mxRectangle width="30" height="30" as="alternateBounds" />
          </mxGeometry>
        </mxCell>
        <mxCell id="_gr7ssFAGt_kjZDbc0Gs-101" value="batch_name" style="shape=partialRectangle;connectable=0;fillColor=none;top=0;left=0;bottom=0;right=0;align=left;spacingLeft=6;overflow=hidden;whiteSpace=wrap;html=1;" vertex="1" parent="_gr7ssFAGt_kjZDbc0Gs-99">
          <mxGeometry x="30" width="150" height="30" as="geometry">
            <mxRectangle width="150" height="30" as="alternateBounds" />
          </mxGeometry>
        </mxCell>
        <mxCell id="_gr7ssFAGt_kjZDbc0Gs-102" value="" style="shape=tableRow;horizontal=0;startSize=0;swimlaneHead=0;swimlaneBody=0;fillColor=none;collapsible=0;dropTarget=0;points=[[0,0.5],[1,0.5]];portConstraint=eastwest;top=0;left=0;right=0;bottom=0;" vertex="1" parent="_gr7ssFAGt_kjZDbc0Gs-95">
          <mxGeometry y="90" width="180" height="30" as="geometry" />
        </mxCell>
        <mxCell id="_gr7ssFAGt_kjZDbc0Gs-103" value="" style="shape=partialRectangle;connectable=0;fillColor=none;top=0;left=0;bottom=0;right=0;editable=1;overflow=hidden;whiteSpace=wrap;html=1;" vertex="1" parent="_gr7ssFAGt_kjZDbc0Gs-102">
          <mxGeometry width="30" height="30" as="geometry">
            <mxRectangle width="30" height="30" as="alternateBounds" />
          </mxGeometry>
        </mxCell>
        <mxCell id="_gr7ssFAGt_kjZDbc0Gs-104" value="file_name" style="shape=partialRectangle;connectable=0;fillColor=none;top=0;left=0;bottom=0;right=0;align=left;spacingLeft=6;overflow=hidden;whiteSpace=wrap;html=1;" vertex="1" parent="_gr7ssFAGt_kjZDbc0Gs-102">
          <mxGeometry x="30" width="150" height="30" as="geometry">
            <mxRectangle width="150" height="30" as="alternateBounds" />
          </mxGeometry>
        </mxCell>
        <mxCell id="_gr7ssFAGt_kjZDbc0Gs-105" value="" style="shape=tableRow;horizontal=0;startSize=0;swimlaneHead=0;swimlaneBody=0;fillColor=none;collapsible=0;dropTarget=0;points=[[0,0.5],[1,0.5]];portConstraint=eastwest;top=0;left=0;right=0;bottom=0;" vertex="1" parent="_gr7ssFAGt_kjZDbc0Gs-95">
          <mxGeometry y="120" width="180" height="30" as="geometry" />
        </mxCell>
        <mxCell id="_gr7ssFAGt_kjZDbc0Gs-106" value="" style="shape=partialRectangle;connectable=0;fillColor=none;top=0;left=0;bottom=0;right=0;editable=1;overflow=hidden;whiteSpace=wrap;html=1;" vertex="1" parent="_gr7ssFAGt_kjZDbc0Gs-105">
          <mxGeometry width="30" height="30" as="geometry">
            <mxRectangle width="30" height="30" as="alternateBounds" />
          </mxGeometry>
        </mxCell>
        <mxCell id="_gr7ssFAGt_kjZDbc0Gs-107" value="submit_time" style="shape=partialRectangle;connectable=0;fillColor=none;top=0;left=0;bottom=0;right=0;align=left;spacingLeft=6;overflow=hidden;whiteSpace=wrap;html=1;" vertex="1" parent="_gr7ssFAGt_kjZDbc0Gs-105">
          <mxGeometry x="30" width="150" height="30" as="geometry">
            <mxRectangle width="150" height="30" as="alternateBounds" />
          </mxGeometry>
        </mxCell>
        <mxCell id="_gr7ssFAGt_kjZDbc0Gs-109" value="" style="shape=tableRow;horizontal=0;startSize=0;swimlaneHead=0;swimlaneBody=0;fillColor=none;collapsible=0;dropTarget=0;points=[[0,0.5],[1,0.5]];portConstraint=eastwest;top=0;left=0;right=0;bottom=0;" vertex="1" parent="_gr7ssFAGt_kjZDbc0Gs-95">
          <mxGeometry y="150" width="180" height="30" as="geometry" />
        </mxCell>
        <mxCell id="_gr7ssFAGt_kjZDbc0Gs-110" value="" style="shape=partialRectangle;connectable=0;fillColor=none;top=0;left=0;bottom=0;right=0;editable=1;overflow=hidden;whiteSpace=wrap;html=1;" vertex="1" parent="_gr7ssFAGt_kjZDbc0Gs-109">
          <mxGeometry width="30" height="30" as="geometry">
            <mxRectangle width="30" height="30" as="alternateBounds" />
          </mxGeometry>
        </mxCell>
        <mxCell id="_gr7ssFAGt_kjZDbc0Gs-111" value="process_time" style="shape=partialRectangle;connectable=0;fillColor=none;top=0;left=0;bottom=0;right=0;align=left;spacingLeft=6;overflow=hidden;whiteSpace=wrap;html=1;" vertex="1" parent="_gr7ssFAGt_kjZDbc0Gs-109">
          <mxGeometry x="30" width="150" height="30" as="geometry">
            <mxRectangle width="150" height="30" as="alternateBounds" />
          </mxGeometry>
        </mxCell>
        <mxCell id="_gr7ssFAGt_kjZDbc0Gs-128" value="" style="shape=tableRow;horizontal=0;startSize=0;swimlaneHead=0;swimlaneBody=0;fillColor=none;collapsible=0;dropTarget=0;points=[[0,0.5],[1,0.5]];portConstraint=eastwest;top=0;left=0;right=0;bottom=0;" vertex="1" parent="_gr7ssFAGt_kjZDbc0Gs-95">
          <mxGeometry y="180" width="180" height="30" as="geometry" />
        </mxCell>
        <mxCell id="_gr7ssFAGt_kjZDbc0Gs-129" value="" style="shape=partialRectangle;connectable=0;fillColor=none;top=0;left=0;bottom=0;right=0;editable=1;overflow=hidden;whiteSpace=wrap;html=1;" vertex="1" parent="_gr7ssFAGt_kjZDbc0Gs-128">
          <mxGeometry width="30" height="30" as="geometry">
            <mxRectangle width="30" height="30" as="alternateBounds" />
          </mxGeometry>
        </mxCell>
        <mxCell id="_gr7ssFAGt_kjZDbc0Gs-130" value="src_path" style="shape=partialRectangle;connectable=0;fillColor=none;top=0;left=0;bottom=0;right=0;align=left;spacingLeft=6;overflow=hidden;whiteSpace=wrap;html=1;" vertex="1" parent="_gr7ssFAGt_kjZDbc0Gs-128">
          <mxGeometry x="30" width="150" height="30" as="geometry">
            <mxRectangle width="150" height="30" as="alternateBounds" />
          </mxGeometry>
        </mxCell>
        <mxCell id="_gr7ssFAGt_kjZDbc0Gs-131" value="" style="shape=tableRow;horizontal=0;startSize=0;swimlaneHead=0;swimlaneBody=0;fillColor=none;collapsible=0;dropTarget=0;points=[[0,0.5],[1,0.5]];portConstraint=eastwest;top=0;left=0;right=0;bottom=0;" vertex="1" parent="_gr7ssFAGt_kjZDbc0Gs-95">
          <mxGeometry y="210" width="180" height="30" as="geometry" />
        </mxCell>
        <mxCell id="_gr7ssFAGt_kjZDbc0Gs-132" value="" style="shape=partialRectangle;connectable=0;fillColor=none;top=0;left=0;bottom=0;right=0;editable=1;overflow=hidden;whiteSpace=wrap;html=1;" vertex="1" parent="_gr7ssFAGt_kjZDbc0Gs-131">
          <mxGeometry width="30" height="30" as="geometry">
            <mxRectangle width="30" height="30" as="alternateBounds" />
          </mxGeometry>
        </mxCell>
        <mxCell id="_gr7ssFAGt_kjZDbc0Gs-133" value="processed_path" style="shape=partialRectangle;connectable=0;fillColor=none;top=0;left=0;bottom=0;right=0;align=left;spacingLeft=6;overflow=hidden;whiteSpace=wrap;html=1;" vertex="1" parent="_gr7ssFAGt_kjZDbc0Gs-131">
          <mxGeometry x="30" width="150" height="30" as="geometry">
            <mxRectangle width="150" height="30" as="alternateBounds" />
          </mxGeometry>
        </mxCell>
        <mxCell id="_gr7ssFAGt_kjZDbc0Gs-134" value="" style="shape=tableRow;horizontal=0;startSize=0;swimlaneHead=0;swimlaneBody=0;fillColor=none;collapsible=0;dropTarget=0;points=[[0,0.5],[1,0.5]];portConstraint=eastwest;top=0;left=0;right=0;bottom=0;" vertex="1" parent="_gr7ssFAGt_kjZDbc0Gs-95">
          <mxGeometry y="240" width="180" height="30" as="geometry" />
        </mxCell>
        <mxCell id="_gr7ssFAGt_kjZDbc0Gs-135" value="" style="shape=partialRectangle;connectable=0;fillColor=none;top=0;left=0;bottom=0;right=0;editable=1;overflow=hidden;whiteSpace=wrap;html=1;" vertex="1" parent="_gr7ssFAGt_kjZDbc0Gs-134">
          <mxGeometry width="30" height="30" as="geometry">
            <mxRectangle width="30" height="30" as="alternateBounds" />
          </mxGeometry>
        </mxCell>
        <mxCell id="_gr7ssFAGt_kjZDbc0Gs-136" value="status" style="shape=partialRectangle;connectable=0;fillColor=none;top=0;left=0;bottom=0;right=0;align=left;spacingLeft=6;overflow=hidden;whiteSpace=wrap;html=1;" vertex="1" parent="_gr7ssFAGt_kjZDbc0Gs-134">
          <mxGeometry x="30" width="150" height="30" as="geometry">
            <mxRectangle width="150" height="30" as="alternateBounds" />
          </mxGeometry>
        </mxCell>
        <mxCell id="_gr7ssFAGt_kjZDbc0Gs-108" value="db" style="text;html=1;align=center;verticalAlign=middle;whiteSpace=wrap;rounded=0;" vertex="1" parent="1">
          <mxGeometry x="382.5" y="-320" width="60" height="30" as="geometry" />
        </mxCell>
        <mxCell id="_gr7ssFAGt_kjZDbc0Gs-137" value="" style="edgeStyle=entityRelationEdgeStyle;fontSize=12;html=1;endArrow=ERzeroToMany;startArrow=ERmandOne;rounded=0;exitX=1;exitY=0.733;exitDx=0;exitDy=0;exitPerimeter=0;entryX=0;entryY=0.5;entryDx=0;entryDy=0;" edge="1" parent="1" source="_gr7ssFAGt_kjZDbc0Gs-96" target="_gr7ssFAGt_kjZDbc0Gs-73">
          <mxGeometry width="100" height="100" relative="1" as="geometry">
            <mxPoint x="345" y="-120" as="sourcePoint" />
            <mxPoint x="445" y="-220" as="targetPoint" />
          </mxGeometry>
        </mxCell>
        <mxCell id="_gr7ssFAGt_kjZDbc0Gs-138" value="class_name_map" style="shape=table;startSize=30;container=1;collapsible=1;childLayout=tableLayout;fixedRows=1;rowLines=0;fontStyle=1;align=center;resizeLast=1;html=1;" vertex="1" parent="1">
          <mxGeometry x="115" y="50" width="180" height="150" as="geometry" />
        </mxCell>
        <mxCell id="_gr7ssFAGt_kjZDbc0Gs-139" value="" style="shape=tableRow;horizontal=0;startSize=0;swimlaneHead=0;swimlaneBody=0;fillColor=none;collapsible=0;dropTarget=0;points=[[0,0.5],[1,0.5]];portConstraint=eastwest;top=0;left=0;right=0;bottom=1;" vertex="1" parent="_gr7ssFAGt_kjZDbc0Gs-138">
          <mxGeometry y="30" width="180" height="30" as="geometry" />
        </mxCell>
        <mxCell id="_gr7ssFAGt_kjZDbc0Gs-140" value="PK" style="shape=partialRectangle;connectable=0;fillColor=none;top=0;left=0;bottom=0;right=0;fontStyle=1;overflow=hidden;whiteSpace=wrap;html=1;" vertex="1" parent="_gr7ssFAGt_kjZDbc0Gs-139">
          <mxGeometry width="30" height="30" as="geometry">
            <mxRectangle width="30" height="30" as="alternateBounds" />
          </mxGeometry>
        </mxCell>
        <mxCell id="_gr7ssFAGt_kjZDbc0Gs-141" value="id" style="shape=partialRectangle;connectable=0;fillColor=none;top=0;left=0;bottom=0;right=0;align=left;spacingLeft=6;fontStyle=5;overflow=hidden;whiteSpace=wrap;html=1;" vertex="1" parent="_gr7ssFAGt_kjZDbc0Gs-139">
          <mxGeometry x="30" width="150" height="30" as="geometry">
            <mxRectangle width="150" height="30" as="alternateBounds" />
          </mxGeometry>
        </mxCell>
        <mxCell id="_gr7ssFAGt_kjZDbc0Gs-142" value="" style="shape=tableRow;horizontal=0;startSize=0;swimlaneHead=0;swimlaneBody=0;fillColor=none;collapsible=0;dropTarget=0;points=[[0,0.5],[1,0.5]];portConstraint=eastwest;top=0;left=0;right=0;bottom=0;" vertex="1" parent="_gr7ssFAGt_kjZDbc0Gs-138">
          <mxGeometry y="60" width="180" height="30" as="geometry" />
        </mxCell>
        <mxCell id="_gr7ssFAGt_kjZDbc0Gs-143" value="" style="shape=partialRectangle;connectable=0;fillColor=none;top=0;left=0;bottom=0;right=0;editable=1;overflow=hidden;whiteSpace=wrap;html=1;" vertex="1" parent="_gr7ssFAGt_kjZDbc0Gs-142">
          <mxGeometry width="30" height="30" as="geometry">
            <mxRectangle width="30" height="30" as="alternateBounds" />
          </mxGeometry>
        </mxCell>
        <mxCell id="_gr7ssFAGt_kjZDbc0Gs-144" value="classifier_name" style="shape=partialRectangle;connectable=0;fillColor=none;top=0;left=0;bottom=0;right=0;align=left;spacingLeft=6;overflow=hidden;whiteSpace=wrap;html=1;" vertex="1" parent="_gr7ssFAGt_kjZDbc0Gs-142">
          <mxGeometry x="30" width="150" height="30" as="geometry">
            <mxRectangle width="150" height="30" as="alternateBounds" />
          </mxGeometry>
        </mxCell>
        <mxCell id="_gr7ssFAGt_kjZDbc0Gs-145" value="" style="shape=tableRow;horizontal=0;startSize=0;swimlaneHead=0;swimlaneBody=0;fillColor=none;collapsible=0;dropTarget=0;points=[[0,0.5],[1,0.5]];portConstraint=eastwest;top=0;left=0;right=0;bottom=0;" vertex="1" parent="_gr7ssFAGt_kjZDbc0Gs-138">
          <mxGeometry y="90" width="180" height="30" as="geometry" />
        </mxCell>
        <mxCell id="_gr7ssFAGt_kjZDbc0Gs-146" value="" style="shape=partialRectangle;connectable=0;fillColor=none;top=0;left=0;bottom=0;right=0;editable=1;overflow=hidden;whiteSpace=wrap;html=1;" vertex="1" parent="_gr7ssFAGt_kjZDbc0Gs-145">
          <mxGeometry width="30" height="30" as="geometry">
            <mxRectangle width="30" height="30" as="alternateBounds" />
          </mxGeometry>
        </mxCell>
        <mxCell id="_gr7ssFAGt_kjZDbc0Gs-147" value="common_name" style="shape=partialRectangle;connectable=0;fillColor=none;top=0;left=0;bottom=0;right=0;align=left;spacingLeft=6;overflow=hidden;whiteSpace=wrap;html=1;" vertex="1" parent="_gr7ssFAGt_kjZDbc0Gs-145">
          <mxGeometry x="30" width="150" height="30" as="geometry">
            <mxRectangle width="150" height="30" as="alternateBounds" />
          </mxGeometry>
        </mxCell>
        <mxCell id="_gr7ssFAGt_kjZDbc0Gs-148" value="" style="shape=tableRow;horizontal=0;startSize=0;swimlaneHead=0;swimlaneBody=0;fillColor=none;collapsible=0;dropTarget=0;points=[[0,0.5],[1,0.5]];portConstraint=eastwest;top=0;left=0;right=0;bottom=0;" vertex="1" parent="_gr7ssFAGt_kjZDbc0Gs-138">
          <mxGeometry y="120" width="180" height="30" as="geometry" />
        </mxCell>
        <mxCell id="_gr7ssFAGt_kjZDbc0Gs-149" value="" style="shape=partialRectangle;connectable=0;fillColor=none;top=0;left=0;bottom=0;right=0;editable=1;overflow=hidden;whiteSpace=wrap;html=1;" vertex="1" parent="_gr7ssFAGt_kjZDbc0Gs-148">
          <mxGeometry width="30" height="30" as="geometry">
            <mxRectangle width="30" height="30" as="alternateBounds" />
          </mxGeometry>
        </mxCell>
        <mxCell id="_gr7ssFAGt_kjZDbc0Gs-150" value="description" style="shape=partialRectangle;connectable=0;fillColor=none;top=0;left=0;bottom=0;right=0;align=left;spacingLeft=6;overflow=hidden;whiteSpace=wrap;html=1;" vertex="1" parent="_gr7ssFAGt_kjZDbc0Gs-148">
          <mxGeometry x="30" width="150" height="30" as="geometry">
            <mxRectangle width="150" height="30" as="alternateBounds" />
          </mxGeometry>
        </mxCell>
      </root>
    </mxGraphModel>
  </diagram>
</mxfile>
